<svg width="18" height="18" viewBox="0 0 18 18" fill="none" xmlns="http://www.w3.org/2000/svg">
<g id="bi:search-heart-fill" clip-path="url(#clip0_42_3798)">
<path id="Vector" d="M7.32149 14.5625C8.87227 14.5648 10.3831 14.0964 11.6325 13.2259H11.6314C11.665 13.2684 11.7009 13.3087 11.7413 13.3481L16.0579 17.4387C16.2681 17.6381 16.5533 17.7501 16.8507 17.7502C17.1481 17.7503 17.4334 17.6384 17.6438 17.4392C17.8542 17.24 17.9724 16.9697 17.9725 16.6879C17.9727 16.406 17.8546 16.1357 17.6444 15.9363L13.3278 11.8457C13.2877 11.8072 13.2446 11.7717 13.1988 11.7394C14.1172 10.5561 14.6115 9.12515 14.6093 7.65625C14.6087 5.82477 13.8407 4.06847 12.4741 2.77342C11.1075 1.47836 9.25415 0.750563 7.32149 0.75C5.38864 0.75 3.53496 1.47762 2.16824 2.77279C0.801511 4.06797 0.0336914 5.8246 0.0336914 7.65625C0.0336914 9.4879 0.801511 11.2445 2.16824 12.5397C3.53496 13.8349 5.38864 14.5625 7.32149 14.5625Z" fill="white"/>
</g>
<defs>
<clipPath id="clip0_42_3798">
<rect width="17.9392" height="17" fill="white" transform="translate(0.0336914 0.75)"/>
</clipPath>
</defs>
</svg>
