<svg width="60" height="74" viewBox="0 0 60 74" fill="none" xmlns="http://www.w3.org/2000/svg">
<circle cx="30" cy="30" r="29" fill="white"/>
<circle cx="30" cy="30" r="29.5" stroke="#9A989C" stroke-opacity="0.23"/>
<path d="M32.2816 55.3473C26.9123 34.0946 31.8404 27.657 53.2822 24.9056C39.9995 15.425 25.8865 12.6671 19.7907 20.6227C13.6948 28.5784 19.2242 45.0533 32.2816 55.3473Z" fill="#08D110" style="mix-blend-mode:multiply"/>
<path d="M6.31924 39.1346C28.066 36.3805 32.262 29.4436 27.0014 8.47579C40.6744 17.3843 48.3909 29.5185 43.2074 38.0966C38.024 46.6746 20.6673 47.5366 6.31924 39.1346Z" fill="#4F3CC0" style="mix-blend-mode:multiply"/>
<path d="M20.576 71.328C20.576 72.272 19.84 73.056 18.528 73.056C17.32 73.056 16.376 72.456 16.336 71.32H17.792C17.832 71.752 18.104 71.96 18.488 71.96C18.888 71.96 19.144 71.76 19.144 71.432C19.144 70.392 16.336 70.952 16.352 68.96C16.352 67.896 17.224 67.304 18.4 67.304C19.624 67.304 20.448 67.912 20.504 68.984H19.024C19 68.624 18.744 68.408 18.376 68.4C18.048 68.392 17.8 68.56 17.8 68.912C17.8 69.888 20.576 69.448 20.576 71.328ZM25.2499 73L24.9139 72.008H22.8179L22.4819 73H21.0499L23.0819 67.384H24.6659L26.6979 73H25.2499ZM24.5619 70.952L23.8659 68.896L23.1779 70.952H24.5619ZM28.4443 73L27.0203 67.384H28.4843L29.2923 71.472L30.2923 67.384H31.7963L32.7563 71.472L33.5723 67.384H35.0443L33.5803 73H31.9243L31.0283 69.304L30.1003 73H28.4443ZM35.7304 73V67.384H37.0984V73H35.7304ZM37.7858 68.48V67.384H42.1298V68.48H40.6418V73H39.2738V68.48H37.7858Z" fill="white"/>
</svg>
